<svg xmlns="http://www.w3.org/2000/svg" viewBox="0 0 723.78918 689.11259"><defs><style>.cls-1{fill:#12658c;}</style></defs><title>Asset 1</title><g id="Layer_2" data-name="Layer 2"><g id="Option_1_copy" data-name="Option 1 copy"><path class="cls-1" d="M422.1413,685.27636c-23.0625-8.4375-39.17313-33.541-55.27834-50.601-17.206-18.2261-36.98137-32.1321-57.90453-45.79914-45.76875-29.89621-89.37224-61.10309-139.48632-83.27382-49.36109-21.8376-83.62045-47.349-109.614-95.432C38.28217,370.25928-8.26257,319.67129,1.27045,272.39408c5.1592-25.58609,15.78621-50.684,25.8531-74.585,10.30787-24.47321,11.636-43.83172,17.62546-69.30016,16.76148-71.27315,76.51939-17.94133,121.66267-12.29969,47.13012,5.88994,96.14494-6.62463,137.1349-30.112C323.06468,74.91322,338.77264,58.6217,358.20764,47.333c21.23051-12.33166,45.53862-17.6321,67.08428-29.18887,25.156-13.49331,39.44445-31.06579,62.01822-3.7957,16.58049,20.02994,23.5657,50.28432,37.82566,72.217,32.62786,50.18355,87.73131,63.63971,131.37615,100.58573,16.46186,16.46186,36.32692,41.74695,42.6061,64.3192,7.04814,25.33647,3.2177,53.55817,8.65945,79.54819,5.80794,27.739,26.399,57.41138,9.46431,84.26627-13.31962,21.12216-43.88553,32.11672-63.3482,46.78-23.10331,17.4061-42.06626,38.33007-66.57266,54.14249-23.299,15.03333-45.96514,25.50832-64.05864,47.32736-17.67713,21.31693-33.46718,44.33147-40.961,71.14086C473.21354,667.18682,464.0302,700.606,422.1413,685.27636Z"/></g></g></svg>