<svg xmlns="http://www.w3.org/2000/svg" viewBox="0 0 1058.1573 1023.56644"><defs><style>.cls-1{fill:#07557b;}</style></defs><title>Asset 6</title><g id="Layer_2" data-name="Layer 2"><g id="Option_1_copy" data-name="Option 1 copy"><path class="cls-1" d="M902.33236,848.08179c-61.96964,24.91763-143.9519,61.68483-182.89025,116.24782-20.75194,29.079-37.75548,59.46664-78.6305,59.23551-34.06951-.19264-74.06679-12.09978-107.15807-20.15564C460.43295,985.5844,409.8457,904.035,350.65016,860.49779c-24.90864-18.31983-50.68864-35.65352-78.222-49.80074-32.1528-16.52079-67.78755-21.69549-99.86476-37.05373-33.69053-16.13068-40.22319-44.07144-58.09132-73.9842-16.65172-27.87639-37.384-53.57819-55.07746-80.8634C41.09046,590.56876,17.517,561.77041,5.35879,530.2672-7.7944,496.186,7.47634,461.79723,6.91,426.52042c-.46147-28.745-6.524-56.81981-2.86879-85.61611,4.3785-34.49455,27.507-61.879,32.61045-96.4297C47.30822,172.3295,19.39622,106.54,74.34609,45.46454,96.13949,21.24168,136.20408-2.20661,169.81339.166,211.66132,3.12026,220.254,50.10232,241.624,78.89572c48.68511,65.59707,120.614,67.24123,193.53973,47.82162,61.46707-16.36825,113.96516-76.49749,178.32288-78.68112,34.40422-1.16732,51.804,32.43769,71.71021,55.68282,26.265,30.67054,52.62522,61.55959,81.59654,89.67623,27.80272,26.98251,57.00681,42.868,92.22945,58.59649,39.55643,17.66371,72.08273,10.63549,112.5961,19.686,85.79037,19.16527,21.17187,119.797,32.91205,180.19514,13.0348,67.05839,16.92629,135.90624,37.45979,201.49436,5.139,16.41494,15.64356,35.72335,16.123,52.83343.44784,15.98138-2.50625,35.0387-11.28712,48.25814C1023.01068,790.31331,942.26832,832.02378,902.33236,848.08179Z"/></g></g></svg>