<svg xmlns="http://www.w3.org/2000/svg" viewBox="0 0 818.58752 773.41513"><defs><style>.cls-1{fill:#0f6086;}</style></defs><title>Asset 2</title><g id="Layer_2" data-name="Layer 2"><g id="Option_1_copy" data-name="Option 1 copy"><path class="cls-1" d="M477.10973,773.245c-35.78614-1.95038-68.48162-42.84133-92.27007-65.02461-32.87478-30.65651-70.44244-53.69-106.8539-79.70923-64.848-46.33965-156.03725-66.14606-195.78282-138.71531-17.79449-32.49-38.70921-61.41838-59.596-91.87471-31.40654-45.79588-24.99265-76.36937-11.26251-126.82,11.01943-40.49027-2.18434-88.09791,13.9188-125.77451C35.41245,121.58048,74.09709,59.60982,99.2661,63.58242c9.96689,1.57314,28.625,21.55346,37.13682,26.62826,16.44116,9.80233,34.86336,18.82185,53.19691,24.28156,43.53184,12.96373,86.64205,2.34781,127.69584-13.25816C353.531,87.45977,388.24935,69.67629,423.8528,54.40527c30.66933-13.15467,63.086-71.60906,98.04052-49.43695,29.1768,18.5072,36.39571,67.63111,55.20206,94.66752,27.82765,40.00562,61.646,62.51313,102.56976,86.42641,28.91483,16.896,76.61385,54.52606,90.32823,85.01551,18.03844,40.10258,12.93979,86.91214,32.98371,128.07557,17.181,35.284,28.70919,88.57114-12.80813,114.31977-18.79773,11.65816-44.18605,12.85127-64.138,24.26192-20.748,11.86593-39.31432,26.64634-56.91539,42.62119-38.22552,34.69372-81.01879,61.08021-108.38986,106.553C534.86625,729.87065,538.29758,776.59464,477.10973,773.245Z"/></g></g></svg>