<svg xmlns="http://www.w3.org/2000/svg" viewBox="0 0 901.59506 850.0019"><defs><style>.cls-1{fill:#0d5b80;}</style></defs><title>Asset 3</title><g id="Layer_2" data-name="Layer 2"><g id="Option_1_copy" data-name="Option 1 copy"><path class="cls-1" d="M513.9259,843.12269c-46.1561-11.503-76.77932-44.89906-111.87323-74.71131-35.91732-30.51173-74.70283-58.92633-113.34893-85.90705-21.21409-14.81059-43.52492-27.637-66.23543-40.00009-24.6931-13.44236-53.74608-20.32725-77.29088-34.95437-38.50581-23.92159-53.38857-77.5181-78.77648-113.36574C42.21622,460.03539,1.0125,419.17975.01515,374.25234c-.50368-22.68915,11.69751-46.10174,14.46828-68.90429,3.06158-25.19585-1.31419-49.51269-2.137-74.58291-1.5303-46.62879,35.95565-75.10767,50.09413-117.21368,9.371-27.90788,9.4256-118.38138,54.75922-103.76235,17.60989,5.67877,34.51,34.23023,47.98069,47.60736,17.83507,17.71119,36.85542,35.54687,60.88029,44.44087,43.15763,15.977,100.48634,5.70692,144.03365-4.25618C413.2731,87.70241,461.1529,66.538,492.61719,35.12752c40.26282-40.194,66.1567-52.80114,101.92051-.62623,28.96865,42.26162,47.602,85.47257,85.08935,121.67261,33.31974,32.17553,75.92482,56.13193,113.646,83.39228,16.52,11.93868,33.391,21.54487,51.00935,31.74138,25.65608,14.8483,25.11362,26.15739,21.76314,55.35108-5.70636,49.72112,21.42982,83.216,31.47289,129.5911,6.08943,28.11868,1.35247,55.13931,3.0906,83.51545,1.60277,26.16611,4.54363,50.0359-21.945,64.86059-21.21476,11.87312-50.55251,12.54713-73.25229,20.38241-26.94925,9.30207-56.40309,24.75187-78.76423,42.27712-37.25962,29.20174-82.00482,65.15358-106.37795,106.55485-11.623,19.74341-12.67348,48.15294-30.12114,64.27459C569.74069,856.97153,538.376,849.21344,513.9259,843.12269Z"/></g></g></svg>