<svg xmlns="http://www.w3.org/2000/svg" viewBox="0 0 1106.51272 1084.8768"><defs><style>.cls-1{fill:#094f75;}</style></defs><title>Asset 7</title><g id="Layer_2" data-name="Layer 2"><g id="Option_1_copy" data-name="Option 1 copy"><path class="cls-1" d="M880.61441,972.49293c-39.51867,4.36048-85.98873,12.52314-117.71,31.94342-37.95761,23.23826-58.118,73.54334-106.50375,79.614-40.1115,5.03255-93.73758-14.21686-133.21548-22.70853-44.41674-9.554-67.32462-35.09756-93.89864-69.6822-53.6321-69.79926-131.00687-133.37227-215.09521-161.47215-43.2732-14.46065-70.3069-23.19989-91.75013-66.26474C103.12058,725.1208,80.67453,689.82,58.14531,652.83341c-20.09035-32.98263-48.933-72.93658-56.54964-111-4.08723-20.42566.61766-39.4119,3.62477-59.48534,3.52677-23.54234.9908-45.67362.04222-69.25817C3.212,362.1047,26.245,327.5734,36.02028,279.95774c9.26843-45.14662-.349-88.276.73259-133.25173C37.846,101.2492,61.50888,61.95964,98.26473,34.82434c31.43141-23.20449,99.90682-48.46872,137.2378-26.213,33.7211,20.10365,40.66564,71.01148,68.86045,98.43993,31.83112,30.96592,80.04413,41.55711,122.93488,35.14043,45.72181-6.84022,86.62247-18.88693,127.86544-39.73482,30.39592-15.36481,84.92987-42.48855,119.37606-26.7906,17.9616,8.18553,27.32856,25.15946,39.09822,39.937,16.95091,21.28294,35.74672,41.22053,54.63039,60.832,29.50537,30.64258,62.67914,64.012,101.18419,82.73475,41.16227,20.01475,81.8572,20.18292,125.218,29.92955,46.7819,10.51563,76.66182,33.733,68.49357,86.69541-7.4121,48.05955-22.91313,83.146-13.55749,133.19745,7.96985,42.6376,9.209,85.56857,17.01258,127.909,4.19534,22.763,8.14016,47.26356,15.48931,69.26147,7.33043,21.94185,28.33248,39.94855,23.76012,64.09132-4.56648,24.11173-7.41631,38.43458-17.93947,64.3793C1064.53463,892.31153,942.48062,965.66663,880.61441,972.49293Z"/></g></g></svg>