<svg xmlns="http://www.w3.org/2000/svg" viewBox="0 0 1149.38317 1171.49566"><defs><style>.cls-1{fill:#0d486b;}</style></defs><title>Asset 8</title><g id="Layer_2" data-name="Layer 2"><g id="Option_1_copy" data-name="Option 1 copy"><path class="cls-1" d="M811.54237,1131.11564c-29.303,12.096-46.31445,7.23-69.582,25.18112-24.85883,19.17879-46.52073,16.462-77.0172,11.86529-24.98917-3.76662-48.80366-12.4486-73.83956-16.02552-27.06193-3.86638-54.41978-3.49407-80.71086-12.01054-49.8367-16.14361-72.60117-55.3315-101.17669-95.81939-27.12873-38.438-66.873-71.29616-106.55171-96.17512-43.57431-27.32156-88.123-34.89377-134.04783-53.92211-46.81694-19.398-55.07445-84.63662-78.4724-125.66414-27.06337-47.4547-58.13194-92.6231-78.44456-143.81909C-8.48694,573.84793,4.33245,523.67042.94395,470.19567c-3.2895-51.91238,18.38029-90.75636,25.58138-140.48834,7.436-51.35423,7.95795-106.6771-.21052-157.86121-9.443-59.17067,20.17513-92.38922,67.37744-125.25181C136.11628,17.05838,186.0114-4.72544,238.72946.88377c45.21369,4.81075,73.21246,52.19528,98.26275,85.72,71.87894,96.19524,189.15927,53.56132,285.33043,24.07881,23.89614-7.32567,49.29454-20.0061,74.71857-15.54509,25.6747,4.505,44.108,21.24689,62.63961,38.052,37.81241,34.28962,76.68536,66.893,118.37081,96.58065a216.85766,216.85766,0,0,0,74.52549,34.46954c26.75574,6.8064,54.68039,1.804,80.641,11.50556,22.69016,8.47935,53.29027,25.05476,73.95315,37.90955,22.08222,13.7378,34.37374,34.06067,34.15179,60.6367-.43083,51.58813-9.14455,102.3564-9.15061,154.50832-.0061,52.49424,24.64544,102.51341,14.95279,154.5018C1121.48431,820.832,940.85829,1077.73517,811.54237,1131.11564Z"/></g></g></svg>